<svg width="1440" height="1043" viewBox="0 0 1440 1043" fill="none" xmlns="http://www.w3.org/2000/svg">
<g clip-path="url(#clip0_217_837)">
<mask id="mask0_217_837" style="mask-type:alpha" maskUnits="userSpaceOnUse" x="-1" y="-191" width="1442" height="1235">
<path d="M110.769 -95.1538H0V-0.307671H110.769V-95.1538Z" stroke="white" stroke-width="1.5"/>
<path d="M221.539 -95.1538H110.769V-0.307671H221.539V-95.1538Z" stroke="white" stroke-width="1.5"/>
<path d="M332.308 -95.1538H221.539V-0.307671H332.308V-95.1538Z" stroke="white" stroke-width="1.5"/>
<path d="M443.077 -95.1538H332.308V-0.307671H443.077V-95.1538Z" stroke="white" stroke-width="1.5"/>
<path d="M553.846 -95.1538H443.077V-0.307671H553.846V-95.1538Z" stroke="white" stroke-width="1.5"/>
<path d="M664.615 -95.1538H553.846V-0.307671H664.615V-95.1538Z" stroke="white" stroke-width="1.5"/>
<path d="M775.384 -95.1538H664.615V-0.307671H775.384V-95.1538Z" stroke="white" stroke-width="1.5"/>
<path d="M886.154 -95.1538H775.385V-0.307671H886.154V-95.1538Z" stroke="white" stroke-width="1.5"/>
<path d="M996.923 -95.1538H886.154V-0.307671H996.923V-95.1538Z" stroke="white" stroke-width="1.5"/>
<path d="M1107.69 -95.1538H996.923V-0.307671H1107.69V-95.1538Z" stroke="white" stroke-width="1.5"/>
<path d="M1218.46 -95.1538H1107.69V-0.307671H1218.46V-95.1538Z" stroke="white" stroke-width="1.5"/>
<path d="M1329.23 -95.1538H1218.46V-0.307671H1329.23V-95.1538Z" stroke="white" stroke-width="1.5"/>
<path d="M1440 -95.1538H1329.23V-0.307671H1440V-95.1538Z" stroke="white" stroke-width="1.5"/>
<path d="M110.769 -0.307617H0V94.5386H110.769V-0.307617Z" stroke="white" stroke-width="1.5"/>
<path d="M221.539 -0.307617H110.769V94.5386H221.539V-0.307617Z" stroke="white" stroke-width="1.5"/>
<path d="M332.308 -0.307617H221.539V94.5386H332.308V-0.307617Z" stroke="white" stroke-width="1.5"/>
<path d="M443.077 -0.307617H332.308V94.5386H443.077V-0.307617Z" stroke="white" stroke-width="1.5"/>
<path d="M553.846 -0.307617H443.077V94.5386H553.846V-0.307617Z" stroke="white" stroke-width="1.5"/>
<path d="M664.615 -0.307617H553.846V94.5386H664.615V-0.307617Z" stroke="white" stroke-width="1.5"/>
<path d="M775.384 -0.307617H664.615V94.5386H775.384V-0.307617Z" stroke="white" stroke-width="1.5"/>
<path d="M886.154 -0.307617H775.385V94.5386H886.154V-0.307617Z" stroke="white" stroke-width="1.5"/>
<path d="M996.923 -0.307617H886.154V94.5386H996.923V-0.307617Z" stroke="white" stroke-width="1.5"/>
<path d="M1107.69 -0.307617H996.923V94.5386H1107.69V-0.307617Z" stroke="white" stroke-width="1.5"/>
<path d="M1218.46 -0.307617H1107.69V94.5386H1218.46V-0.307617Z" stroke="white" stroke-width="1.5"/>
<path d="M1329.23 -0.307617H1218.46V94.5386H1329.23V-0.307617Z" stroke="white" stroke-width="1.5"/>
<path d="M1440 -0.307617H1329.23V94.5386H1440V-0.307617Z" stroke="white" stroke-width="1.5"/>
<path d="M110.769 94.5386H0V189.385H110.769V94.5386Z" stroke="white" stroke-width="1.5"/>
<path d="M221.539 94.5386H110.769V189.385H221.539V94.5386Z" stroke="white" stroke-width="1.5"/>
<path d="M332.308 94.5386H221.539V189.385H332.308V94.5386Z" stroke="white" stroke-width="1.5"/>
<path d="M443.077 94.5386H332.308V189.385H443.077V94.5386Z" stroke="white" stroke-width="1.5"/>
<path d="M553.846 94.5386H443.077V189.385H553.846V94.5386Z" stroke="white" stroke-width="1.5"/>
<path d="M664.615 94.5386H553.846V189.385H664.615V94.5386Z" stroke="white" stroke-width="1.5"/>
<path d="M775.384 94.5386H664.615V189.385H775.384V94.5386Z" stroke="white" stroke-width="1.5"/>
<path d="M886.154 94.5386H775.385V189.385H886.154V94.5386Z" stroke="white" stroke-width="1.5"/>
<path d="M996.923 94.5386H886.154V189.385H996.923V94.5386Z" stroke="white" stroke-width="1.5"/>
<path d="M1107.69 94.5386H996.923V189.385H1107.69V94.5386Z" stroke="white" stroke-width="1.5"/>
<path d="M1218.46 94.5386H1107.69V189.385H1218.46V94.5386Z" stroke="white" stroke-width="1.5"/>
<path d="M1329.23 94.5386H1218.46V189.385H1329.23V94.5386Z" stroke="white" stroke-width="1.5"/>
<path d="M1440 94.5386H1329.23V189.385H1440V94.5386Z" stroke="white" stroke-width="1.5"/>
<path d="M110.769 189.385H0V284.231H110.769V189.385Z" stroke="white" stroke-width="1.5"/>
<path d="M221.539 189.385H110.769V284.231H221.539V189.385Z" stroke="white" stroke-width="1.5"/>
<path d="M332.308 189.385H221.539V284.231H332.308V189.385Z" stroke="white" stroke-width="1.5"/>
<path d="M443.077 189.385H332.308V284.231H443.077V189.385Z" stroke="white" stroke-width="1.5"/>
<path d="M553.846 189.385H443.077V284.231H553.846V189.385Z" stroke="white" stroke-width="1.5"/>
<path d="M664.615 189.385H553.846V284.231H664.615V189.385Z" stroke="white" stroke-width="1.5"/>
<path d="M775.384 189.385H664.615V284.231H775.384V189.385Z" stroke="white" stroke-width="1.5"/>
<path d="M886.154 189.385H775.385V284.231H886.154V189.385Z" stroke="white" stroke-width="1.5"/>
<path d="M996.923 189.385H886.154V284.231H996.923V189.385Z" stroke="white" stroke-width="1.5"/>
<path d="M1107.69 189.385H996.923V284.231H1107.69V189.385Z" stroke="white" stroke-width="1.5"/>
<path d="M1218.46 189.385H1107.69V284.231H1218.46V189.385Z" stroke="white" stroke-width="1.5"/>
<path d="M1329.23 189.385H1218.46V284.231H1329.23V189.385Z" stroke="white" stroke-width="1.5"/>
<path d="M1440 189.385H1329.23V284.231H1440V189.385Z" stroke="white" stroke-width="1.5"/>
<path d="M110.769 284.231H0V379.077H110.769V284.231Z" stroke="white" stroke-width="1.5"/>
<path d="M221.539 284.231H110.769V379.077H221.539V284.231Z" stroke="white" stroke-width="1.5"/>
<path d="M332.308 284.231H221.539V379.077H332.308V284.231Z" stroke="white" stroke-width="1.5"/>
<path d="M443.077 284.231H332.308V379.077H443.077V284.231Z" stroke="white" stroke-width="1.5"/>
<path d="M553.846 284.231H443.077V379.077H553.846V284.231Z" stroke="white" stroke-width="1.5"/>
<path d="M664.615 284.231H553.846V379.077H664.615V284.231Z" stroke="white" stroke-width="1.5"/>
<path d="M775.384 284.231H664.615V379.077H775.384V284.231Z" stroke="white" stroke-width="1.5"/>
<path d="M886.154 284.231H775.385V379.077H886.154V284.231Z" stroke="white" stroke-width="1.5"/>
<path d="M996.923 284.231H886.154V379.077H996.923V284.231Z" stroke="white" stroke-width="1.5"/>
<path d="M1107.69 284.231H996.923V379.077H1107.69V284.231Z" stroke="white" stroke-width="1.5"/>
<path d="M1218.46 284.231H1107.69V379.077H1218.46V284.231Z" stroke="white" stroke-width="1.5"/>
<path d="M1329.23 284.231H1218.46V379.077H1329.23V284.231Z" stroke="white" stroke-width="1.5"/>
<path d="M1440 284.231H1329.23V379.077H1440V284.231Z" stroke="white" stroke-width="1.5"/>
<path d="M110.769 379.077H0V473.923H110.769V379.077Z" stroke="white" stroke-width="1.5"/>
<path d="M221.539 379.077H110.769V473.923H221.539V379.077Z" stroke="white" stroke-width="1.5"/>
<path d="M332.308 379.077H221.539V473.923H332.308V379.077Z" stroke="white" stroke-width="1.5"/>
<path d="M443.077 379.077H332.308V473.923H443.077V379.077Z" stroke="white" stroke-width="1.5"/>
<path d="M553.846 379.077H443.077V473.923H553.846V379.077Z" stroke="white" stroke-width="1.5"/>
<path d="M664.615 379.077H553.846V473.923H664.615V379.077Z" stroke="white" stroke-width="1.5"/>
<path d="M775.384 379.077H664.615V473.923H775.384V379.077Z" stroke="white" stroke-width="1.5"/>
<path d="M886.154 379.077H775.385V473.923H886.154V379.077Z" stroke="white" stroke-width="1.5"/>
<path d="M996.923 379.077H886.154V473.923H996.923V379.077Z" stroke="white" stroke-width="1.5"/>
<path d="M1107.69 379.077H996.923V473.923H1107.69V379.077Z" stroke="white" stroke-width="1.5"/>
<path d="M1218.46 379.077H1107.69V473.923H1218.46V379.077Z" stroke="white" stroke-width="1.5"/>
<path d="M1329.23 379.077H1218.46V473.923H1329.23V379.077Z" stroke="white" stroke-width="1.5"/>
<path d="M1440 379.077H1329.23V473.923H1440V379.077Z" stroke="white" stroke-width="1.5"/>
<path d="M110.769 473.923H0V568.769H110.769V473.923Z" stroke="white" stroke-width="1.5"/>
<path d="M221.539 473.923H110.769V568.769H221.539V473.923Z" stroke="white" stroke-width="1.5"/>
<path d="M332.308 473.923H221.539V568.769H332.308V473.923Z" stroke="white" stroke-width="1.5"/>
<path d="M443.077 473.923H332.308V568.769H443.077V473.923Z" stroke="white" stroke-width="1.5"/>
<path d="M553.846 473.923H443.077V568.769H553.846V473.923Z" stroke="white" stroke-width="1.5"/>
<path d="M664.615 473.923H553.846V568.769H664.615V473.923Z" stroke="white" stroke-width="1.5"/>
<path d="M775.384 473.923H664.615V568.769H775.384V473.923Z" stroke="white" stroke-width="1.5"/>
<path d="M886.154 473.923H775.385V568.769H886.154V473.923Z" stroke="white" stroke-width="1.5"/>
<path d="M996.923 473.923H886.154V568.769H996.923V473.923Z" stroke="white" stroke-width="1.5"/>
<path d="M1107.69 473.923H996.923V568.769H1107.69V473.923Z" stroke="white" stroke-width="1.5"/>
<path d="M1218.46 473.923H1107.69V568.769H1218.46V473.923Z" stroke="white" stroke-width="1.5"/>
<path d="M1329.23 473.923H1218.46V568.769H1329.23V473.923Z" stroke="white" stroke-width="1.5"/>
<path d="M1440 473.923H1329.23V568.769H1440V473.923Z" stroke="white" stroke-width="1.5"/>
<path d="M110.769 568.769H0V663.615H110.769V568.769Z" stroke="white" stroke-width="1.5"/>
<path d="M221.539 568.769H110.769V663.615H221.539V568.769Z" stroke="white" stroke-width="1.5"/>
<path d="M332.308 568.769H221.539V663.615H332.308V568.769Z" stroke="white" stroke-width="1.5"/>
<path d="M443.077 568.769H332.308V663.615H443.077V568.769Z" stroke="white" stroke-width="1.5"/>
<path d="M553.846 568.769H443.077V663.615H553.846V568.769Z" stroke="white" stroke-width="1.5"/>
<path d="M664.615 568.769H553.846V663.615H664.615V568.769Z" stroke="white" stroke-width="1.5"/>
<path d="M775.384 568.769H664.615V663.615H775.384V568.769Z" stroke="white" stroke-width="1.5"/>
<path d="M886.154 568.769H775.385V663.615H886.154V568.769Z" stroke="white" stroke-width="1.5"/>
<path d="M996.923 568.769H886.154V663.615H996.923V568.769Z" stroke="white" stroke-width="1.5"/>
<path d="M1107.69 568.769H996.923V663.615H1107.69V568.769Z" stroke="white" stroke-width="1.5"/>
<path d="M1218.46 568.769H1107.69V663.615H1218.46V568.769Z" stroke="white" stroke-width="1.5"/>
<path d="M1329.23 568.769H1218.46V663.615H1329.23V568.769Z" stroke="white" stroke-width="1.5"/>
<path d="M1440 568.769H1329.23V663.615H1440V568.769Z" stroke="white" stroke-width="1.5"/>
<path d="M110.769 663.615H0V758.462H110.769V663.615Z" stroke="white" stroke-width="1.5"/>
<path d="M221.539 663.615H110.769V758.462H221.539V663.615Z" stroke="white" stroke-width="1.5"/>
<path d="M332.308 663.615H221.539V758.462H332.308V663.615Z" stroke="white" stroke-width="1.5"/>
<path d="M443.077 663.615H332.308V758.462H443.077V663.615Z" stroke="white" stroke-width="1.5"/>
<path d="M553.846 663.615H443.077V758.462H553.846V663.615Z" stroke="white" stroke-width="1.5"/>
<path d="M664.615 663.615H553.846V758.462H664.615V663.615Z" stroke="white" stroke-width="1.5"/>
<path d="M775.384 663.615H664.615V758.462H775.384V663.615Z" stroke="white" stroke-width="1.5"/>
<path d="M886.154 663.615H775.385V758.462H886.154V663.615Z" stroke="white" stroke-width="1.5"/>
<path d="M996.923 663.615H886.154V758.462H996.923V663.615Z" stroke="white" stroke-width="1.5"/>
<path d="M1107.69 663.615H996.923V758.462H1107.69V663.615Z" stroke="white" stroke-width="1.5"/>
<path d="M1218.46 663.615H1107.69V758.462H1218.46V663.615Z" stroke="white" stroke-width="1.5"/>
<path d="M1329.23 663.615H1218.46V758.462H1329.23V663.615Z" stroke="white" stroke-width="1.5"/>
<path d="M1440 663.615H1329.23V758.462H1440V663.615Z" stroke="white" stroke-width="1.5"/>
<path d="M110.769 758.462H0V853.308H110.769V758.462Z" stroke="white" stroke-width="1.5"/>
<path d="M221.539 758.462H110.769V853.308H221.539V758.462Z" stroke="white" stroke-width="1.5"/>
<path d="M332.308 758.462H221.539V853.308H332.308V758.462Z" stroke="white" stroke-width="1.5"/>
<path d="M443.077 758.462H332.308V853.308H443.077V758.462Z" stroke="white" stroke-width="1.5"/>
<path d="M553.846 758.462H443.077V853.308H553.846V758.462Z" stroke="white" stroke-width="1.5"/>
<path d="M664.615 758.462H553.846V853.308H664.615V758.462Z" stroke="white" stroke-width="1.5"/>
<path d="M775.384 758.462H664.615V853.308H775.384V758.462Z" stroke="white" stroke-width="1.5"/>
<path d="M886.154 758.462H775.385V853.308H886.154V758.462Z" stroke="white" stroke-width="1.5"/>
<path d="M996.923 758.462H886.154V853.308H996.923V758.462Z" stroke="white" stroke-width="1.5"/>
<path d="M1107.69 758.462H996.923V853.308H1107.69V758.462Z" stroke="white" stroke-width="1.5"/>
<path d="M1218.46 758.462H1107.69V853.308H1218.46V758.462Z" stroke="white" stroke-width="1.5"/>
<path d="M1329.23 758.462H1218.46V853.308H1329.23V758.462Z" stroke="white" stroke-width="1.5"/>
<path d="M1440 758.462H1329.23V853.308H1440V758.462Z" stroke="white" stroke-width="1.5"/>
<path d="M110.769 853.308H0V948.154H110.769V853.308Z" stroke="white" stroke-width="1.5"/>
<path d="M221.539 853.308H110.769V948.154H221.539V853.308Z" stroke="white" stroke-width="1.5"/>
<path d="M332.308 853.308H221.539V948.154H332.308V853.308Z" stroke="white" stroke-width="1.5"/>
<path d="M443.077 853.308H332.308V948.154H443.077V853.308Z" stroke="white" stroke-width="1.5"/>
<path d="M553.846 853.308H443.077V948.154H553.846V853.308Z" stroke="white" stroke-width="1.5"/>
<path d="M664.615 853.308H553.846V948.154H664.615V853.308Z" stroke="white" stroke-width="1.5"/>
<path d="M775.384 853.308H664.615V948.154H775.384V853.308Z" stroke="white" stroke-width="1.5"/>
<path d="M886.154 853.308H775.385V948.154H886.154V853.308Z" stroke="white" stroke-width="1.5"/>
<path d="M996.923 853.308H886.154V948.154H996.923V853.308Z" stroke="white" stroke-width="1.5"/>
<path d="M1107.69 853.308H996.923V948.154H1107.69V853.308Z" stroke="white" stroke-width="1.5"/>
<path d="M1218.46 853.308H1107.69V948.154H1218.46V853.308Z" stroke="white" stroke-width="1.5"/>
<path d="M1329.23 853.308H1218.46V948.154H1329.23V853.308Z" stroke="white" stroke-width="1.5"/>
<path d="M1440 853.308H1329.23V948.154H1440V853.308Z" stroke="white" stroke-width="1.5"/>
<path d="M110.769 948.154H0V1043H110.769V948.154Z" stroke="white" stroke-width="1.5"/>
<path d="M221.539 948.154H110.769V1043H221.539V948.154Z" stroke="white" stroke-width="1.5"/>
<path d="M332.308 948.154H221.539V1043H332.308V948.154Z" stroke="white" stroke-width="1.5"/>
<path d="M443.077 948.154H332.308V1043H443.077V948.154Z" stroke="white" stroke-width="1.5"/>
<path d="M553.846 948.154H443.077V1043H553.846V948.154Z" stroke="white" stroke-width="1.5"/>
<path d="M664.615 948.154H553.846V1043H664.615V948.154Z" stroke="white" stroke-width="1.5"/>
<path d="M775.384 948.154H664.615V1043H775.384V948.154Z" stroke="white" stroke-width="1.5"/>
<path d="M886.154 948.154H775.385V1043H886.154V948.154Z" stroke="white" stroke-width="1.5"/>
<path d="M996.923 948.154H886.154V1043H996.923V948.154Z" stroke="white" stroke-width="1.5"/>
<path d="M1107.69 948.154H996.923V1043H1107.69V948.154Z" stroke="white" stroke-width="1.5"/>
<path d="M1218.46 948.154H1107.69V1043H1218.46V948.154Z" stroke="white" stroke-width="1.5"/>
<path d="M1329.23 948.154H1218.46V1043H1329.23V948.154Z" stroke="white" stroke-width="1.5"/>
<path d="M1440 948.154H1329.23V1043H1440V948.154Z" stroke="white" stroke-width="1.5"/>
</mask>
<g mask="url(#mask0_217_837)">
<rect y="22" width="1440" height="1028" fill="url(#paint0_radial_217_837)" fill-opacity="0.4"/>
</g>
</g>
<defs>
<radialGradient id="paint0_radial_217_837" cx="0" cy="0" r="1" gradientUnits="userSpaceOnUse" gradientTransform="translate(720 536) rotate(90) scale(514 720)">
<stop stop-color="#D9D9D9"/>
<stop offset="0.415039" stop-color="#919191" stop-opacity="0.297696"/>
<stop offset="0.740039" stop-color="#838383" stop-opacity="0.154961"/>
<stop offset="1" stop-color="#737373" stop-opacity="0"/>
</radialGradient>
<clipPath id="clip0_217_837">
<rect width="1440" height="1043" fill="white"/>
</clipPath>
</defs>
</svg>
